# Blender 4.2.1 LTS
# www.blender.org
mtllib cacerola.mtl
o Cube.029
v 11.252404 2.258059 1.297154
v 11.291215 0.574261 1.331951
v 11.252404 2.258059 -0.977705
v 11.291215 0.574261 -1.012502
v 8.715111 2.258060 1.297154
v 8.676298 0.574263 1.331951
v 8.715111 2.258060 -0.977705
v 8.676298 0.574263 -1.012502
v 10.906740 1.178980 0.987243
v 10.906740 1.178980 -0.667793
v 9.060774 1.178981 -0.667793
v 9.060774 1.178981 0.987243
v 12.070612 0.482407 0.541587
v 11.593246 1.612460 1.602743
v 12.070612 0.482407 -0.222241
v 11.593246 1.612460 -1.283293
v 9.983757 2.393674 -1.226956
v 8.374268 1.612462 -1.283293
v 8.437104 2.393675 0.159725
v 8.374268 1.612462 1.602743
v 9.983757 2.393674 1.546406
v 11.781512 0.574261 0.159725
v 9.983756 0.574262 -1.452087
v 8.186001 0.574263 0.159725
v 9.983756 0.574262 1.771536
v 11.444843 0.474653 1.469690
v 11.444843 0.474653 -1.150240
v 8.522670 0.474655 -1.150240
v 8.522670 0.474655 1.469690
v 11.108999 1.235772 0.159725
v 9.983757 1.235773 -0.849132
v 8.858515 1.235774 0.159725
v 9.983757 1.235773 1.168582
v 8.796211 0.908618 -0.904991
v 8.796211 0.908618 1.224441
v 11.171302 0.908616 1.224441
v 11.171302 0.908616 -0.904991
v 11.643024 2.376766 -0.227643
v 9.983757 1.625831 -1.825961
v 7.768996 1.625833 0.159725
v 9.983757 1.625831 2.145411
v 9.983758 2.678272 0.159725
v 8.349636 0.914217 0.159725
v 11.643024 2.376766 0.546989
v 9.983756 0.474654 -1.641477
v 7.974762 0.474655 0.159725
v 9.983756 0.474654 1.960927
v 9.983757 1.354957 0.159725
v 11.617877 0.914215 0.159725
v 9.983757 0.914216 1.624826
v 9.983757 0.914216 -1.305377
v 11.479855 2.369012 0.546989
v 11.479855 2.369012 -0.227643
v 11.295083 2.436975 0.159725
v 12.112986 1.623941 -0.222164
v 12.112986 1.623941 0.541510
v 11.907444 0.474653 -0.222241
v 11.907444 0.474653 0.541587
v 11.781569 0.574234 0.159725
v 12.281861 0.821810 0.541543
v 12.281861 0.821810 -0.222197
v 12.276155 1.631695 -0.222164
v 12.276155 1.631695 0.541510
v 13.290897 0.768193 0.543605
v 13.095057 0.419682 0.538300
v 13.076515 0.433439 -0.224304
v 13.272358 0.781949 -0.218910
v 14.595296 0.959852 0.524462
v 14.399457 0.611341 0.519157
v 14.380915 0.625098 -0.243446
v 14.576756 0.973608 -0.238052
v 11.558659 0.726100 1.571733
v 11.597815 0.914447 1.606839
v 11.597815 0.914447 -1.287389
v 11.558659 0.726100 -1.252283
v 8.408869 0.726069 -1.252270
v 8.369699 0.914449 -1.287389
v 8.408870 0.726069 1.571720
v 8.369699 0.914449 1.606839
v 9.983757 0.726080 -1.781775
v 9.983757 0.914449 -1.830260
v 7.818289 0.726065 0.159725
v 7.764200 0.914450 0.159725
v 9.983756 0.726080 2.101224
v 9.983757 0.914449 2.149710
v 12.117985 0.914448 0.541538
v 12.063391 0.725205 0.541554
v 12.225581 0.819136 0.541543
v 12.063391 0.725205 -0.222208
v 12.117985 0.914448 -0.222193
v 12.225581 0.819136 -0.222197
vn 0.7333 0.5875 -0.3422
vn -0.2817 -0.4675 -0.8379
vn 0.8983 0.0074 -0.4394
vn 0.1514 0.9721 0.1794
vn 0.2461 0.5639 -0.7883
vn 0.2817 -0.4675 -0.8379
vn -0.9223 0.0073 -0.3864
vn -0.2461 0.5639 -0.7883
vn -0.7480 0.5967 -0.2905
vn -0.8001 -0.4979 -0.3346
vn -0.3192 0.0067 0.9477
vn -0.7480 0.5967 0.2905
vn -0.2461 0.5639 0.7883
vn -0.2817 -0.4675 0.8379
vn 0.2817 -0.4675 0.8379
vn 0.2461 0.5639 0.7883
vn 0.7333 0.5875 0.3422
vn -0.1607 0.9706 -0.1793
vn -0.1607 0.9706 0.1793
vn 0.8983 0.0074 0.4393
vn 0.8409 -0.4099 -0.3532
vn 0.8409 -0.4099 0.3532
vn 0.5509 -0.8062 0.2155
vn 0.5509 -0.8062 -0.2155
vn 1.0000 0.0070 -0.0000
vn -0.3559 -0.9205 -0.1614
vn -0.3558 -0.9205 0.1614
vn 0.3192 0.0067 -0.9477
vn -0.1546 -0.8744 0.4599
vn 0.1546 -0.8744 0.4599
vn -0.3192 0.0067 -0.9477
vn 0.7782 -0.4964 -0.3847
vn 0.4199 -0.8904 0.1756
vn 0.4199 -0.8904 -0.1756
vn -0.9223 0.0073 0.3864
vn -0.8001 -0.4979 0.3346
vn 0.1546 -0.8744 -0.4599
vn -0.1546 -0.8744 -0.4599
vn 0.7782 -0.4964 0.3847
vn -0.0000 -0.0000 1.0000
vn 0.0944 -0.9900 0.1053
vn -0.0944 -0.9900 0.1053
vn -0.0944 -0.9900 -0.1053
vn 0.0944 -0.9900 -0.1053
vn -0.8409 -0.4099 0.3532
vn -0.8409 -0.4099 -0.3532
vn -0.5509 -0.8062 -0.2155
vn -0.5509 -0.8062 0.2155
vn -0.2956 -0.3826 -0.8754
vn 0.2956 -0.3826 -0.8754
vn 0.1872 -0.7813 -0.5955
vn -0.1872 -0.7813 -0.5955
vn 0.2956 -0.3826 0.8754
vn -0.2956 -0.3826 0.8754
vn -0.1872 -0.7813 0.5955
vn 0.1872 -0.7813 0.5955
vn 0.3452 0.9385 -0.0000
vn -0.6204 -0.7843 -0.0000
vn 0.0475 -0.9989 -0.0000
vn 0.0003 -0.0071 1.0000
vn 0.1514 0.9721 -0.1794
vn 0.7620 0.6475 -0.0000
vn 0.0002 -0.0077 1.0000
vn 0.0003 -0.0071 -1.0000
vn -0.0000 0.0001 1.0000
vn -0.0000 0.0001 -1.0000
vn -0.0000 -0.0000 -1.0000
vn -0.0475 0.9989 -0.0000
vn 0.0184 -0.0256 0.9995
vn -0.0549 -0.9985 -0.0083
vn 0.0009 0.0073 -1.0000
vn 0.0467 0.9989 0.0084
vn 0.8716 -0.4893 -0.0300
vn 0.1450 -0.9892 -0.0214
vn -0.0185 0.0258 -0.9995
vn -0.1450 0.9892 0.0214
vn 0.3097 -0.2365 -0.9209
vn -0.3097 -0.2366 -0.9209
vn -0.8919 -0.2555 -0.3731
vn -0.8919 -0.2555 0.3731
vn -0.3097 -0.2366 0.9209
vn 0.3097 -0.2365 0.9209
vn 0.8685 -0.2551 0.4249
vn 0.8685 -0.2551 -0.4249
vn 0.3192 0.0067 0.9477
vt 0.375000 0.147731
vt 0.500000 0.142664
vt 0.500000 0.250000
vt 0.375000 0.250000
vt 0.750000 0.523640
vt 0.673324 0.549074
vt 0.637528 0.512722
vt 0.750000 0.506128
vt 0.609505 0.142615
vt 0.609283 0.250000
vt 0.125000 0.647731
vt 0.144019 0.625000
vt 0.250000 0.625000
vt 0.250000 0.750000
vt 0.125000 0.750000
vt 0.500000 0.375000
vt 0.375000 0.375000
vt 0.825926 0.549074
vt 0.862282 0.512718
vt 0.499250 0.500000
vt 0.609188 0.500000
vt 0.584202 0.625000
vt 0.497001 0.625000
vt 0.375000 0.500000
vt 0.375000 0.625000
vt 0.645641 0.625000
vt 0.609246 0.625000
vt 0.499250 0.750000
vt 0.609188 0.750000
vt 0.609541 0.875000
vt 0.500000 0.875000
vt 0.375000 0.750000
vt 0.375000 0.875000
vt 0.673324 0.700926
vt 0.750000 0.726360
vt 0.750000 0.743872
vt 0.637528 0.737278
vt 0.825926 0.700926
vt 0.862282 0.737282
vt 0.750000 0.743872
vt 0.500000 1.000000
vt 0.375000 1.000000
vt 0.375000 0.000000
vt 0.500000 0.000000
vt 0.500000 0.107336
vt 0.375000 0.102269
vt 0.250000 0.500000
vt 0.609283 0.000000
vt 0.609505 0.107385
vt 0.500000 0.107336
vt 0.685588 0.689412
vt 0.661434 0.625000
vt 0.669495 0.625000
vt 0.691496 0.683505
vt 0.685588 0.560588
vt 0.691496 0.566496
vt 0.704529 0.579529
vt 0.694565 0.625000
vt 0.704529 0.670471
vt 0.625000 0.142608
vt 0.625000 0.107392
vt 0.814412 0.689412
vt 0.838567 0.625000
vt 0.838570 0.625000
vt 0.847400 0.636821
vt 0.814412 0.560588
vt 0.847400 0.613179
vt 0.838570 0.625000
vt 0.609541 0.375000
vt 0.750000 0.536434
vt 0.609541 0.375000
vt 0.847400 0.613179
vt 0.867775 0.608907
vt 0.584202 0.625000
vt 0.637528 0.737278
vt 0.750000 0.713567
vt 0.867775 0.641093
vt 0.862282 0.737282
vt 0.609505 0.107385
vt 0.750000 0.569565
vt 0.750000 0.625000
vt 0.795471 0.579529
vt 0.805435 0.625000
vt 0.795471 0.670471
vt 0.750000 0.680435
vt 0.830505 0.625000
vt 0.808505 0.566496
vt 0.808505 0.683505
vt 0.750000 0.705505
vt 0.750000 0.544495
vt 0.128533 0.625000
vt 0.846629 0.639761
vt 0.125000 0.500000
vt 0.125000 0.602269
vt 0.875000 0.642608
vt 0.875000 0.607392
vt 0.625000 0.105556
vt 0.624318 0.107391
vt 0.625000 0.144444
vt 0.624318 0.142609
vt 0.625000 0.251689
vt 0.625000 0.373606
vt 0.625000 0.376394
vt 0.625000 0.498311
vt 0.625000 0.751689
vt 0.625000 0.873606
vt 0.625000 0.876394
vt 0.625000 0.998311
vt 0.609283 1.000000
vt 0.609541 0.875000
vt 0.625000 0.001698
vt 0.625000 0.248302
s 0
usemtl negro_cacerola
f 53/1/1 55/2/1 16/3/1 3/4/1
f 45/5/2 28/6/2 76/7/2 80/8/2
f 55/2/3 90/9/3 74/10/3 16/3/3
f 52/11/4 54/12/4 42/13/4 21/14/4 1/15/4
f 3/4/5 16/3/5 39/16/5 17/17/5
f 27/18/6 45/5/6 80/8/6 75/19/6
f 18/20/7 77/21/7 83/22/7 40/23/7
f 17/17/8 39/16/8 18/20/8 7/24/8
f 7/24/9 18/20/9 40/23/9 19/25/9
f 28/6/10 46/26/10 82/27/10 76/7/10
f 20/28/11 79/29/11 85/30/11 41/31/11
f 19/25/12 40/23/12 20/28/12 5/32/12
f 5/32/13 20/28/13 41/31/13 21/33/13
f 29/34/14 47/35/14 84/36/14 78/37/14
f 47/35/15 26/38/15 72/39/15 84/40/15
f 21/33/16 41/31/16 14/41/16 1/42/16
f 1/43/17 14/44/17 56/45/17 52/46/17
f 17/47/18 7/24/18 19/25/18 42/13/18
f 42/13/19 19/25/19 5/32/19 21/14/19
f 14/44/20 73/48/20 86/49/20 56/50/20
f 6/51/21 24/52/21 43/53/21 35/54/21
f 24/52/22 8/55/22 34/56/22 43/53/22
f 43/53/23 34/56/23 11/57/23 32/58/23
f 35/54/24 43/53/24 32/58/24 12/59/24
f 2/62/26 22/63/26 59/64/26 58/65/26 26/38/26
f 22/63/27 4/66/27 27/18/27 57/67/27 59/68/27
f 16/3/28 74/10/28 81/69/28 39/16/28
f 4/66/29 23/70/29 45/5/29 27/18/29
f 23/70/30 8/55/30 28/6/30 45/5/30
f 39/16/31 81/71/31 77/21/31 18/20/31
f 57/72/32 27/18/32 75/19/32 89/73/32
f 8/55/33 24/52/33 46/26/33 28/6/33
f 24/52/34 6/51/34 29/34/34 46/26/34
f 40/23/35 83/74/35 79/29/35 20/28/35
f 46/26/36 29/34/36 78/75/36 82/27/36
f 6/51/37 25/76/37 47/35/37 29/34/37
f 25/76/38 2/62/38 26/38/38 47/35/38
f 26/38/39 58/65/39 87/77/39 72/78/39
f 11/57/41 31/80/41 48/81/41 32/58/41
f 31/80/42 10/82/42 30/83/42 48/81/42
f 48/81/43 30/83/43 9/84/43 33/85/43
f 32/58/44 48/81/44 33/85/44 12/59/44
f 4/66/45 22/63/45 49/86/45 37/87/45
f 22/63/46 2/62/46 36/88/46 49/86/46
f 49/86/47 36/88/47 9/84/47 30/83/47
f 37/87/48 49/86/48 30/83/48 10/82/48
f 2/62/49 25/76/49 50/89/49 36/88/49
f 25/76/50 6/51/50 35/54/50 50/89/50
f 50/89/51 35/54/51 12/59/51 33/85/51
f 36/88/52 50/89/52 33/85/52 9/84/52
f 8/55/53 23/70/53 51/90/53 34/56/53
f 23/70/54 4/66/54 37/87/54 51/90/54
f 51/90/55 37/87/55 10/82/55 31/80/55
f 34/56/56 51/90/56 31/80/56 11/57/56
f 52/11/57 53/91/57 54/12/57
f 57/72/58 58/92/58 59/64/58
f 3/93/61 17/47/61 42/13/61 54/12/61 53/94/61
f 41/31/85 85/110/85 73/109/85 14/41/85
usemtl gris_mango_
f 61/60/25 62/2/25 63/50/25 60/61/25
f 56/50/40 86/79/40 88/61/40 60/61/40 63/50/40
f 58/92/59 57/72/59 15/72/59 13/92/59
f 52/46/60 56/45/60 63/45/60 44/46/60
f 44/46/62 63/45/62 62/2/62 38/1/62
f 60/95/63 13/65/63 65/65/63 64/95/63
f 55/2/64 53/1/64 38/1/64 62/2/64
f 88/95/65 87/77/65 58/65/65 13/65/65 60/95/65
f 57/72/66 89/73/66 91/96/66 61/96/66 15/72/66
f 91/60/67 90/9/67 55/2/67 62/2/67 61/60/67
f 53/91/68 52/11/68 44/11/68 38/91/68
f 64/95/69 65/65/69 69/65/69 68/95/69
f 13/92/70 15/72/70 66/72/70 65/92/70
f 15/72/71 61/96/71 67/96/71 66/72/71
f 61/60/72 60/61/72 64/61/72 67/60/72
f 68/95/73 69/65/73 70/72/73 71/96/73
f 65/92/74 66/72/74 70/72/74 69/92/74
f 66/72/75 67/96/75 71/96/75 70/72/75
f 67/60/76 64/61/76 68/61/76 71/60/76
f 86/49/65 87/97/65 88/98/65
f 89/99/66 90/9/66 91/100/66
f 75/101/77 80/102/77 81/69/77 74/10/77
f 80/103/78 76/104/78 77/21/78 81/71/78
f 76/7/79 82/27/79 83/22/79 77/21/79
f 82/27/80 78/75/80 79/29/80 83/74/80
f 78/105/81 84/106/81 85/30/81 79/29/81
f 84/107/82 72/108/82 73/109/82 85/110/82
f 86/49/83 73/48/83 72/111/83 87/97/83
f 89/99/84 75/112/84 74/10/84 90/9/84
